<?xml version="1.0" encoding="utf-8"?>
<!-- Generator: Adobe Illustrator 29.1.0, SVG Export Plug-In . SVG Version: 9.03 Build 55587)  -->
<svg version="1.1" id="Layer_1" xmlns="http://www.w3.org/2000/svg" xmlns:xlink="http://www.w3.org/1999/xlink" x="0px" y="0px"
	 viewBox="0 0 1650 769" style="enable-background:new 0 0 1650 769;" xml:space="preserve">
<g>
	<path d="M247.33,490.54l-2.97,119.21H24.21c0-35.8,2.43-63.54,7.29-83.21c4.86-19.67,12.85-38.75,23.97-57.24
		c11.12-18.49,26.64-38.75,46.57-60.78c26.19-28.72,43.44-49.82,51.76-63.29c8.32-13.47,12.48-28.67,12.48-45.59
		c0-12.59-3.13-22.96-9.39-31.13c-6.26-8.16-14.08-12.25-23.47-12.25c-13.67,0-23.76,6.74-30.27,20.21
		c-6.51,13.48-10.25,35.46-11.24,65.95l-63.01-3.54c0-39.54,4.94-69.34,14.82-89.41c9.88-20.06,23.31-34.62,40.27-43.67
		c16.96-9.05,35.41-13.57,55.35-13.57c32.78,0,58.52,10.82,77.21,32.46c18.69,21.64,28.04,48.59,28.04,80.85
		c0,17.31-2.84,33.3-8.52,47.95c-5.68,14.66-12.85,26.95-21.5,36.88c-8.65,9.94-23.93,24.25-45.83,42.93
		c-32.95,28.13-53.62,50.46-62.02,66.98c-8.4,16.52-13.34,31.08-14.82,43.67h100.31v-53.41H247.33z"/>
	<path d="M293.53,609.75v-69.34h49.17V268.65h-49.17V199.3h307.61v126.59h-65.72v-57.24H432.14v95.01h74.37V433h-74.37v107.41h52.88
		v69.34H293.53z"/>
	<path d="M975.97,540.41v69.34h-104.7l-77.61-179.7h-39.33v110.36h42.99v69.34H617.7v-69.34h47.19V268.65H617.7V199.3H825
		c39.04,0,67.16,11.76,84.38,35.26c17.21,23.51,25.82,50.12,25.82,79.82c0,46.62-19.85,80.66-59.55,102.1l55.84,123.93H975.97z
		 M754.33,364.54h30.64c37.88,0,56.83-16.13,56.83-48.39c0-15.93-4.32-27.83-12.97-35.7c-8.65-7.87-20.55-11.8-35.7-11.8h-38.79
		V364.54z"/>
	<path d="M991.78,609.75v-69.34h41.26V268.65h-41.26V199.3h302.92v130.13h-65.72v-60.79h-106.49v94.72h85.98v69.34h-85.98v107.7
		h106.49v-61.38h65.72v130.72H991.78z"/>
	<path d="M1329.29,609.75v-69.34h41.26V268.65h-41.26V199.3h302.92v130.13h-65.72v-60.79H1460v94.72h85.98v69.34H1460v107.7h106.49
		v-61.38h65.72v130.72H1329.29z"/>
</g>
<g>
	<path d="M203.17,139.88V47.78h-15.9V32.42h43.04c11.84,0,20.72,0.68,26.64,2.03c5.92,1.35,11.14,4.78,15.67,10.29
		c4.52,5.5,6.79,11.96,6.79,19.38c0,5.71-1.35,10.86-4.04,15.45c-2.7,4.59-6.65,8.07-11.85,10.42c7.19,2.36,12.72,6.26,16.59,11.7
		c3.87,5.45,5.81,11.67,5.81,18.67c0,6.06-1.44,11.57-4.32,16.51c-2.88,4.94-6.71,8.77-11.48,11.48c-4.77,2.71-9.99,4.53-15.67,5.47
		c-5.67,0.94-13.4,1.41-23.2,1.41h-43.97v-15.36H203.17z M222.7,83.54h12.18c9.3,0,15.79-1.55,19.48-4.64
		c3.69-3.09,5.53-7.64,5.53-13.64c0-11.66-8.34-17.48-25.01-17.48H222.7V83.54z M222.7,139.88h7.34c9.61,0,16.64-0.46,21.1-1.37
		c4.46-0.91,8.1-3.06,10.92-6.45c2.82-3.38,4.23-7.73,4.23-13.02c0-4.83-1.35-8.87-4.04-12.14s-6.17-5.44-10.41-6.53
		c-4.25-1.09-10.24-1.63-17.99-1.63H222.7V139.88z"/>
	<path d="M328.22,47.78v61.46c0,9.54,0.51,16.13,1.53,19.78c1.02,3.65,3.58,6.75,7.67,9.31c4.09,2.56,9.36,3.84,15.8,3.84
		c7.68,0,13.57-1.1,17.66-3.31c4.09-2.21,6.8-5.18,8.13-8.92c1.33-3.74,2-10.34,2-19.82V47.78h-14.97V32.42h50.58v15.36h-16.18
		v64.19c0,8.65-0.39,14.94-1.16,18.85c-0.78,3.92-2.87,8.01-6.28,12.27c-3.41,4.27-8.21,7.68-14.41,10.24
		c-6.2,2.56-13.73,3.84-22.59,3.84c-9.79,0-17.94-1.19-24.45-3.58c-6.51-2.38-11.4-5.58-14.69-9.58c-3.29-4-5.47-8.27-6.55-12.8
		c-1.08-4.53-1.63-11.57-1.63-21.1V47.78H292.7V32.42h50.85v15.36H328.22z"/>
	<path d="M471.39,139.88V99.35L432.9,47.78h-15.8V32.42h53.18v15.36h-16.29l28.56,37.97l26.09-37.97H492.4V32.42h51.5v15.36H526.8
		l-35.89,51.57v40.53h17.66v15.36h-54.57v-15.36H471.39z"/>
	<path d="M599.13,93.26c0-17.84,6.14-32.76,18.41-44.77s28.26-18.01,47.97-18.01c19.9,0,36.1,6,48.62,18.01
		c12.52,12.01,18.78,27.05,18.78,45.12c0,18.42-6.37,33.63-19.1,45.61c-12.74,11.98-28.93,17.97-48.58,17.97
		c-12.52,0-24.03-2.84-34.54-8.52c-10.51-5.68-18.39-13.6-23.66-23.75C601.76,114.76,599.13,104.21,599.13,93.26z M620.42,93.34
		c0,13.48,4.15,24.78,12.46,33.91c8.3,9.12,19.21,13.69,32.73,13.69c13.39,0,24.39-4.66,33-14c8.61-9.33,12.92-20.47,12.92-33.42
		c0-13.07-4.39-24.12-13.16-33.16c-8.77-9.04-19.79-13.55-33.05-13.55c-13.2,0-23.99,4.45-32.35,13.33
		C624.6,69.03,620.42,80.1,620.42,93.34z"/>
	<path d="M761.73,139.88V47.78h-18.5V32.42h44.14l56.73,95.47V47.78h-18.32V32.42h53.09v15.36h-19.06v108.69h-20.04L777.73,51.65
		v88.23h18.5v15.36h-52.99v-15.36H761.73z"/>
	<path d="M901.19,139.88V47.78h-16.74V32.42h107.47v37h-15.99V47.78h-55.22v36.56h48.07V99.7h-48.07v40.18h55.22v-22.34h15.99v37.7
		H884.45v-15.36H901.19z"/>
	<path d="M1014.61,155.24v-21.72h22.87v18.9c0,6.42-0.53,11.39-1.58,14.92s-3.3,6.43-6.74,8.7c-3.44,2.27-8.29,3.49-14.55,3.66
		v-9.18c7.44-1.06,11.16-5.45,11.16-13.16c0-0.47-0.03-1.18-0.09-2.12H1014.61z"/>
	<path d="M1182.7,95.99h47.04c0.06,1.59,0.09,3,0.09,4.24c0,17.25-5.95,31.05-17.85,41.41c-11.9,10.36-27.61,15.54-47.13,15.54
		c-23.37,0-40.78-6.31-52.25-18.94c-11.47-12.63-17.2-27.56-17.2-44.81c0-18.07,5.86-33.08,17.57-45.03
		c11.71-11.95,27.61-17.92,47.69-17.92c18.04,0,33.16,5.21,45.37,15.63V32.42h16.46v40.35h-16.46c-3.1-6.77-8.6-12.79-16.5-18.06
		c-7.9-5.27-16.94-7.9-27.1-7.9c-14.13,0-25.29,4.53-33.47,13.6c-8.18,9.07-12.27,19.99-12.27,32.76c0,14.66,4.66,26.28,13.99,34.88
		c9.33,8.6,20.56,12.89,33.7,12.89c10.29,0,19.46-2.72,27.52-8.17c8.06-5.44,12.77-12.58,14.13-21.41h-23.34V95.99z"/>
	<path d="M1260.79,139.88V47.78h-16.73V32.42h107.47v37h-15.99V47.78h-55.22v36.56h48.07V99.7h-48.07v40.18h55.22v-22.34h15.99v37.7
		h-107.47v-15.36H1260.79z"/>
	<path d="M1402.76,139.88V47.78h-26.68v31.35h-15.99V32.42h104.78v46.71h-15.99V47.78h-26.59v92.09h16.83v15.36h-52.9v-15.36
		H1402.76z"/>
</g>
<g>
	<path d="M6.06,706.82c0-12.67,3.92-23.28,11.77-31.81s18.07-12.8,30.67-12.8c12.72,0,23.08,4.27,31.09,12.8
		c8,8.53,12.01,19.22,12.01,32.06c0,13.09-4.07,23.89-12.22,32.4c-8.14,8.51-18.5,12.77-31.06,12.77c-8.01,0-15.37-2.02-22.08-6.05
		c-6.72-4.04-11.76-9.66-15.13-16.88C7.75,722.1,6.06,714.6,6.06,706.82z M19.68,706.89c0,9.58,2.65,17.61,7.97,24.09
		c5.31,6.48,12.29,9.72,20.93,9.72c8.56,0,15.59-3.31,21.1-9.94c5.51-6.63,8.26-14.54,8.26-23.75c0-9.29-2.8-17.14-8.41-23.56
		c-5.61-6.42-12.65-9.63-21.13-9.63c-8.44,0-15.34,3.16-20.69,9.47C22.35,689.61,19.68,697.47,19.68,706.89z"/>
	<path d="M110.27,739.95v-65.44H99.81V663.6h64.14v26.29h-10.22v-15.37h-30.97v25.85h26.69v10.92h-26.69v28.67h10.58v10.92H99.81
		v-10.92H110.27z"/>
	<path d="M209.25,739.95v-65.44h-10.7V663.6h68.72v26.29h-10.22v-15.37h-35.31v25.97h30.73v10.92h-30.73v28.55h35.31v-15.87h10.22
		v26.79h-68.72v-10.92H209.25z"/>
	<path d="M325.77,751.81l2.44,1.13c6.46,2.8,11.43,4.2,14.92,4.2c1.11,0,2.56-0.19,4.34-0.56l-4.4,10.79
		c-1.19,0.21-2.28,0.31-3.27,0.31c-3.92,0-9.33-1.76-16.23-5.29c-5.94-3.02-10.62-4.53-14.03-4.53c-3.53,0-6.36,1.03-8.5,3.1
		l-3.51-5.33c2.34-2.68,5.39-4.43,9.15-5.27c-6.66-2.22-12.3-5.78-16.91-10.7c-4.62-4.91-7.84-10.2-9.66-15.87
		c-1.82-5.67-2.73-11.3-2.73-16.91c0-12.34,3.86-22.87,11.59-31.59s18.01-13.08,30.85-13.08c12.84,0,23.22,4.25,31.15,12.74
		c7.93,8.49,11.89,19.2,11.89,32.12c0,6.86-1.25,13.39-3.75,19.61c-2.5,6.21-6.78,11.79-12.84,16.72
		C340.21,748.33,333.38,751.14,325.77,751.81z M290.99,706.89c0,9.58,2.65,17.61,7.97,24.09c5.31,6.48,12.29,9.72,20.93,9.72
		c8.56,0,15.59-3.31,21.1-9.94c5.51-6.63,8.26-14.54,8.26-23.75c0-9.29-2.8-17.14-8.41-23.56c-5.61-6.42-12.65-9.63-21.13-9.63
		c-8.44,0-15.34,3.16-20.69,9.47C293.67,689.61,290.99,697.47,290.99,706.89z"/>
	<path d="M389.61,674.51v43.67c0,6.78,0.33,11.46,0.98,14.05c0.65,2.59,2.29,4.8,4.9,6.62s5.98,2.73,10.11,2.73
		c4.91,0,8.68-0.78,11.29-2.35s4.35-3.68,5.2-6.34c0.85-2.66,1.28-7.35,1.28-14.08v-44.29h-9.57V663.6h32.34v10.92H435.8v45.61
		c0,6.15-0.25,10.61-0.74,13.39c-0.5,2.78-1.83,5.69-4.01,8.72c-2.18,3.03-5.25,5.46-9.21,7.28c-3.96,1.82-8.78,2.73-14.45,2.73
		c-6.26,0-11.47-0.85-15.63-2.54c-4.16-1.69-7.29-3.96-9.39-6.81c-2.1-2.84-3.5-5.88-4.19-9.1c-0.69-3.22-1.04-8.22-1.04-15v-44.29
		H366.9V663.6h32.52v10.92H389.61z"/>
	<path d="M502.36,720.19h-29.79l-6.33,19.76h10.05v10.92h-32.58v-10.92h10.01l22.58-66.5h-9.99v-9.85h42.27v9.85h-10.34l23.14,66.5
		h9.25v10.92h-32.4v-10.92h10.28L502.36,720.19z M499.24,709.96l-11-36.51h-1.13l-11.46,36.51H499.24z"/>
	<path d="M542.09,739.95v-65.44h-10.7V663.6h33.82v10.92h-10.17v65.44h25.32v-29.68h11.65v40.59h-60.64v-10.92H542.09z"/>
	<path d="M629.6,706.82c0-12.67,3.92-23.28,11.77-31.81s18.07-12.8,30.67-12.8c12.72,0,23.08,4.27,31.09,12.8
		c8,8.53,12.01,19.22,12.01,32.06c0,13.09-4.07,23.89-12.22,32.4c-8.14,8.51-18.5,12.77-31.06,12.77c-8.01,0-15.37-2.02-22.08-6.05
		c-6.72-4.04-11.76-9.66-15.13-16.88C631.28,722.1,629.6,714.6,629.6,706.82z M643.21,706.89c0,9.58,2.65,17.61,7.97,24.09
		c5.31,6.48,12.29,9.72,20.93,9.72c8.56,0,15.59-3.31,21.1-9.94c5.51-6.63,8.26-14.54,8.26-23.75c0-9.29-2.8-17.14-8.41-23.56
		c-5.61-6.42-12.65-9.63-21.13-9.63c-8.44,0-15.34,3.16-20.69,9.47C645.89,689.61,643.21,697.47,643.21,706.89z"/>
	<path d="M734.05,739.95v-65.44h-11.35V663.6h33.59c7.01,0,12.58,0.58,16.7,1.73c4.12,1.15,7.53,3.58,10.23,7.28
		c2.69,3.7,4.04,8.31,4.04,13.83c0,11.54-5.68,18.8-17.04,21.77l14.61,31.75h10.11v10.92h-17.91l-18.83-40.78h-11.65v29.86h10.58
		v10.92h-34.42v-10.92H734.05z M746.53,699.17h9.75c4.72,0,8.19-0.32,10.43-0.97c2.24-0.65,4.07-1.97,5.5-3.95s2.14-4.65,2.14-8
		c0-2.84-0.72-5.25-2.17-7.21c-1.45-1.96-3.23-3.21-5.35-3.73c-2.12-0.52-5.36-0.78-9.72-0.78h-10.58V699.17z"/>
	<path d="M837.54,739.95v-65.44h-10.7V663.6h33.83v10.92H850.5v65.44h25.32v-29.68h11.65v40.59h-60.64v-10.92H837.54z"/>
	<path d="M902.58,739.95v-65.44h-10.7V663.6h68.72v26.29h-10.22v-15.37h-35.31v25.97h30.73v10.92h-30.73v28.55h35.31v-15.87h10.22
		v26.79h-68.72v-10.92H902.58z"/>
	<path d="M968.86,750.87v-31.68h10.34v7.72c4.95,9.5,11.43,14.24,19.44,14.24c4.08,0,7.53-1.32,10.34-3.95
		c2.81-2.64,4.22-6.09,4.22-10.35c0-4.14-1.15-7.12-3.45-8.94c-2.3-1.82-6.64-3.63-13.02-5.43c-7.41-2.09-12.9-4.07-16.47-5.93
		c-3.57-1.86-6.41-4.52-8.53-7.97c-2.12-3.45-3.18-7.54-3.18-12.26c0-7.32,2.31-13.17,6.92-17.54c4.62-4.37,10.41-6.56,17.39-6.56
		c6.62,0,12.76,2.26,18.43,6.78v-5.83h10.11v26.48h-10.11v-6.09c-4.24-6.73-10.09-10.1-17.54-10.1c-4.52,0-7.99,1.1-10.4,3.29
		c-2.42,2.2-3.63,4.82-3.63,7.87c0,2.34,0.61,4.4,1.84,6.18c1.23,1.78,2.79,3.08,4.7,3.92c1.9,0.84,5.65,2.01,11.24,3.51
		c7.29,2,12.58,3.87,15.87,5.61c3.29,1.74,6.12,4.63,8.5,8.69c2.38,4.06,3.57,8.72,3.57,13.99c0,7.45-2.49,13.6-7.46,18.45
		c-4.97,4.85-11.13,7.28-18.46,7.28c-7.53,0-14.31-2.86-20.33-8.59v7.21H968.86z"/>
	<path d="M1033.48,750.87v-31.68h10.34v7.72c4.95,9.5,11.43,14.24,19.44,14.24c4.08,0,7.53-1.32,10.34-3.95
		c2.81-2.64,4.22-6.09,4.22-10.35c0-4.14-1.15-7.12-3.45-8.94c-2.3-1.82-6.64-3.63-13.02-5.43c-7.41-2.09-12.9-4.07-16.47-5.93
		c-3.57-1.86-6.41-4.52-8.53-7.97c-2.12-3.45-3.18-7.54-3.18-12.26c0-7.32,2.31-13.17,6.92-17.54c4.62-4.37,10.41-6.56,17.39-6.56
		c6.62,0,12.76,2.26,18.43,6.78v-5.83h10.11v26.48h-10.11v-6.09c-4.24-6.73-10.09-10.1-17.54-10.1c-4.52,0-7.99,1.1-10.4,3.29
		c-2.42,2.2-3.63,4.82-3.63,7.87c0,2.34,0.61,4.4,1.84,6.18c1.23,1.78,2.79,3.08,4.7,3.92c1.9,0.84,5.65,2.01,11.24,3.51
		c7.29,2,12.58,3.87,15.87,5.61c3.29,1.74,6.12,4.63,8.5,8.69c2.38,4.06,3.57,8.72,3.57,13.99c0,7.45-2.49,13.6-7.46,18.45
		c-4.97,4.85-11.13,7.28-18.46,7.28c-7.53,0-14.31-2.86-20.33-8.59v7.21H1033.48z"/>
	<path d="M1107.91,739.95v-65.44h-10.7V663.6h68.72v26.29h-10.22v-15.37h-35.31v25.97h30.73v10.92h-30.73v28.55h35.31v-15.87h10.22
		v26.79h-68.72v-10.92H1107.91z"/>
	<path d="M1182.87,739.95v-65.44h-11.35V663.6h33.59c7.01,0,12.58,0.58,16.71,1.73c4.12,1.15,7.53,3.58,10.22,7.28
		c2.69,3.7,4.04,8.31,4.04,13.83c0,11.54-5.68,18.8-17.04,21.77l14.61,31.75h10.11v10.92h-17.91L1207,710.08h-11.65v29.86h10.58
		v10.92h-34.42v-10.92H1182.87z M1195.35,699.17h9.75c4.72,0,8.19-0.32,10.43-0.97s4.07-1.97,5.5-3.95s2.14-4.65,2.14-8
		c0-2.84-0.72-5.25-2.17-7.21c-1.45-1.96-3.23-3.21-5.35-3.73c-2.12-0.52-5.36-0.78-9.72-0.78h-10.58V699.17z"/>
	<path d="M1301.97,751.74l-27.78-77.23h-10.23V663.6h32.64v10.92h-9.55l21.06,58.6l20.5-58.6h-9.65V663.6h31.75v10.92h-10.04
		l-27.21,77.23H1301.97z"/>
	<path d="M1400.77,720.19h-29.79l-6.33,19.76h10.05v10.92h-32.58v-10.92h10.01l22.58-66.5h-9.99v-9.85h42.27v9.85h-10.34l23.14,66.5
		h9.25v10.92h-32.4v-10.92h10.28L1400.77,720.19z M1397.66,709.96l-11-36.51h-1.13l-11.46,36.51H1397.66z"/>
	<path d="M1440.51,739.95v-65.44h-10.7V663.6h33.83v10.92h-10.17v65.44h25.32v-29.68h11.65v40.59h-60.64v-10.92H1440.51z"/>
	<path d="M1515.83,674.51v43.67c0,6.78,0.33,11.46,0.98,14.05c0.65,2.59,2.29,4.8,4.9,6.62c2.62,1.82,5.98,2.73,10.11,2.73
		c4.91,0,8.68-0.78,11.29-2.35s4.35-3.68,5.2-6.34c0.85-2.66,1.28-7.35,1.28-14.08v-44.29h-9.57V663.6h32.34v10.92h-10.34v45.61
		c0,6.15-0.25,10.61-0.74,13.39c-0.5,2.78-1.83,5.69-4.01,8.72c-2.18,3.03-5.25,5.46-9.21,7.28c-3.96,1.82-8.78,2.73-14.45,2.73
		c-6.26,0-11.47-0.85-15.63-2.54c-4.16-1.69-7.29-3.96-9.39-6.81c-2.1-2.84-3.5-5.88-4.19-9.1s-1.04-8.22-1.04-15v-44.29h-10.22
		V663.6h32.52v10.92H1515.83z"/>
	<path d="M1587.94,739.95v-65.44h-10.7V663.6h68.72v26.29h-10.22v-15.37h-35.31v25.97h30.73v10.92h-30.73v28.55h35.31v-15.87h10.22
		v26.79h-68.72v-10.92H1587.94z"/>
</g>
<g>
</g>
<g>
</g>
<g>
</g>
<g>
</g>
<g>
</g>
<g>
</g>
<g>
</g>
<g>
</g>
<g>
</g>
<g>
</g>
<g>
</g>
<g>
</g>
<g>
</g>
<g>
</g>
<g>
</g>
</svg>
