<?xml version="1.0" encoding="utf-8"?>
<!-- Generator: Adobe Illustrator 29.1.0, SVG Export Plug-In . SVG Version: 9.03 Build 55587)  -->
<svg version="1.1" id="Layer_1" xmlns="http://www.w3.org/2000/svg" xmlns:xlink="http://www.w3.org/1999/xlink" x="0px" y="0px"
	 viewBox="0 0 1650 769" style="enable-background:new 0 0 1650 769;" xml:space="preserve">
<g>
	<path d="M22.77,625.75v-69.34h58.72V284.65H22.77V215.3h367.36v126.59h-78.49v-57.24H188.31v95.01h88.82V449h-88.82v107.41h63.15
		v69.34H22.77z"/>
	<path d="M837.76,556.41v69.34H712.73l-92.68-179.7h-46.97v110.36h51.34v69.34H409.91v-69.34h56.36V284.65h-56.36V215.3h247.57
		c46.62,0,80.21,11.76,100.77,35.26c20.55,23.51,30.83,50.12,30.83,79.82c0,46.62-23.71,80.66-71.11,102.09l66.69,123.93H837.76z
		 M573.08,380.54h36.59c45.24,0,67.87-16.13,67.87-48.39c0-15.93-5.16-27.83-15.49-35.7c-10.33-7.87-24.54-11.8-42.64-11.8h-46.33
		V380.54z"/>
	<path d="M856.65,625.75v-69.34h49.28V284.65h-49.28V215.3h361.76v130.13h-78.49v-60.79h-127.18v94.72h102.69v69.34h-102.69v107.7
		h127.18v-61.38h78.49v130.72H856.65z"/>
	<path d="M1259.72,625.75v-69.34h49.28V284.65h-49.28V215.3h361.76v130.13h-78.49v-60.79h-127.18v94.72h102.69v69.34h-102.69v107.7
		h127.18v-61.38h78.49v130.72H1259.72z"/>
</g>
<g>
	<path d="M18.72,141.88V49.78H3.97V34.42h39.95c10.99,0,19.23,0.68,24.72,2.03c5.49,1.35,10.34,4.78,14.54,10.29
		c4.2,5.5,6.3,11.96,6.3,19.38c0,5.71-1.25,10.86-3.75,15.45c-2.5,4.59-6.17,8.07-11,10.42c6.67,2.36,11.81,6.26,15.4,11.7
		c3.59,5.45,5.39,11.67,5.39,18.67c0,6.06-1.34,11.57-4.01,16.51c-2.67,4.94-6.23,8.77-10.66,11.48c-4.43,2.71-9.27,4.53-14.54,5.47
		c-5.26,0.94-12.44,1.41-21.53,1.41H3.97v-15.36H18.72z M36.84,85.54h11.3c8.63,0,14.65-1.55,18.08-4.64
		c3.42-3.09,5.13-7.64,5.13-13.64c0-11.66-7.74-17.48-23.21-17.48h-11.3V85.54z M36.84,141.88h6.82c8.92,0,15.44-0.46,19.58-1.37
		c4.14-0.91,7.52-3.06,10.14-6.45c2.62-3.38,3.93-7.73,3.93-13.02c0-4.83-1.25-8.87-3.75-12.14s-5.72-5.44-9.66-6.53
		c-3.94-1.09-9.51-1.63-16.7-1.63H36.84V141.88z"/>
	<path d="M134.77,49.78v61.46c0,9.54,0.47,16.13,1.42,19.78c0.95,3.65,3.32,6.75,7.12,9.31c3.8,2.56,8.68,3.84,14.67,3.84
		c7.13,0,12.6-1.1,16.39-3.31c3.8-2.21,6.31-5.18,7.55-8.92c1.24-3.74,1.85-10.34,1.85-19.82V49.78h-13.89V34.42h46.94v15.36h-15.01
		v64.19c0,8.65-0.36,14.94-1.08,18.85c-0.72,3.92-2.66,8.01-5.82,12.27c-3.16,4.27-7.62,7.68-13.37,10.24
		c-5.75,2.56-12.74,3.84-20.97,3.84c-9.09,0-16.65-1.19-22.69-3.58c-6.04-2.38-10.58-5.58-13.63-9.58c-3.05-4-5.08-8.27-6.08-12.8
		c-1.01-4.53-1.51-11.57-1.51-21.1V49.78h-14.84V34.42H149v15.36H134.77z"/>
	<path d="M267.64,141.88v-40.53l-35.72-51.57h-14.67V34.42h49.35v15.36h-15.12l26.51,37.97l24.21-37.97h-15.07V34.42h47.8v15.36
		h-15.88l-33.3,51.57v40.53h16.39v15.36H251.5v-15.36H267.64z"/>
	<path d="M411.98,141.88V49.78h-24.76v31.35h-14.84V34.42h97.24v46.71h-14.84V49.78H430.1v92.09h15.62v15.36h-49.09v-15.36H411.98z"
		/>
	<path d="M516.59,158.48L486.01,49.78H471.6V34.42h45.9v15.36h-14.39l22.72,80.35l21.83-80.35h-14.28V34.42h55.13v15.36H574.4
		l21.92,80.35l22.29-80.35h-14.3V34.42h44.17v15.36h-14.15l-29.97,108.69h-17.18l-27-97.13l-26.83,97.13H516.59z"/>
	<path d="M648.3,95.26c0-17.84,5.69-32.76,17.08-44.77c11.39-12.01,26.23-18.01,44.52-18.01c18.46,0,33.5,6,45.12,18.01
		c11.62,12.01,17.43,27.05,17.43,45.12c0,18.42-5.91,33.63-17.73,45.61c-11.82,11.98-26.85,17.97-45.08,17.97
		c-11.62,0-22.3-2.84-32.05-8.52c-9.75-5.68-17.07-13.6-21.96-23.75C650.74,116.76,648.3,106.21,648.3,95.26z M668.06,95.34
		c0,13.48,3.85,24.78,11.56,33.91c7.71,9.12,17.83,13.69,30.37,13.69c12.42,0,22.63-4.66,30.63-14
		c7.99-9.33,11.99-20.47,11.99-33.42c0-13.07-4.07-24.12-12.21-33.16c-8.14-9.04-18.36-13.55-30.67-13.55
		c-12.25,0-22.26,4.45-30.02,13.33C671.94,71.03,668.06,82.1,668.06,95.34z"/>
	<path d="M782.21,157.24v-21.72h21.22v18.9c0,6.42-0.49,11.39-1.47,14.92c-0.98,3.53-3.06,6.43-6.26,8.7
		c-3.19,2.27-7.69,3.49-13.5,3.66v-9.18c6.9-1.06,10.35-5.45,10.35-13.16c0-0.47-0.03-1.18-0.09-2.12H782.21z"/>
	<path d="M938.2,97.99h43.66c0.06,1.59,0.09,3,0.09,4.24c0,17.25-5.52,31.05-16.57,41.41c-11.04,10.36-25.62,15.54-43.74,15.54
		c-21.69,0-37.85-6.31-48.49-18.94c-10.64-12.63-15.96-27.56-15.96-44.81c0-18.07,5.44-33.08,16.31-45.03
		c10.87-11.95,25.62-17.92,44.26-17.92c16.74,0,30.77,5.21,42.1,15.63V34.42h15.27v40.35h-15.27c-2.88-6.77-7.98-12.79-15.31-18.06
		c-7.33-5.27-15.72-7.9-25.15-7.9c-13.11,0-23.47,4.53-31.06,13.6c-7.59,9.07-11.39,19.99-11.39,32.76
		c0,14.66,4.33,26.28,12.98,34.88c8.66,8.6,19.08,12.89,31.28,12.89c9.55,0,18.06-2.72,25.54-8.17
		c7.48-5.44,11.85-12.58,13.12-21.41H938.2V97.99z"/>
	<path d="M1010.67,141.88V49.78h-15.53V34.42h99.74v37h-14.84V49.78h-51.25v36.56h44.61v15.36h-44.61v40.18h51.25v-22.34h14.84v37.7
		h-99.74v-15.36H1010.67z"/>
	<path d="M1142.42,141.88V49.78h-24.76v31.35h-14.84V34.42h97.24v46.71h-14.84V49.78h-24.68v92.09h15.62v15.36h-49.09v-15.36
		H1142.42z"/>
	<path d="M1280.81,141.88V49.78h-24.76v31.35h-14.84V34.42h97.24v46.71h-14.84V49.78h-24.68v92.09h15.62v15.36h-49.09v-15.36
		H1280.81z"/>
	<path d="M1385.42,158.48l-30.58-108.69h-14.41V34.42h45.9v15.36h-14.39l22.72,80.35l21.83-80.35h-14.28V34.42h55.13v15.36h-14.11
		l21.92,80.35l22.29-80.35h-14.3V34.42h44.17v15.36h-14.15l-29.97,108.69H1456l-27-97.13l-26.83,97.13H1385.42z"/>
	<path d="M1517.13,95.26c0-17.84,5.69-32.76,17.08-44.77s26.23-18.01,44.52-18.01c18.46,0,33.5,6,45.12,18.01
		c11.62,12.01,17.43,27.05,17.43,45.12c0,18.42-5.91,33.63-17.73,45.61c-11.82,11.98-26.85,17.97-45.08,17.97
		c-11.62,0-22.3-2.84-32.05-8.52c-9.75-5.68-17.07-13.6-21.96-23.75C1519.57,116.76,1517.13,106.21,1517.13,95.26z M1536.89,95.34
		c0,13.48,3.85,24.78,11.56,33.91c7.71,9.12,17.83,13.69,30.37,13.69c12.42,0,22.63-4.66,30.63-14
		c7.99-9.33,11.99-20.47,11.99-33.42c0-13.07-4.07-24.12-12.21-33.16c-8.14-9.04-18.36-13.55-30.67-13.55
		c-12.25,0-22.26,4.45-30.03,13.33C1540.77,71.03,1536.89,82.1,1536.89,95.34z"/>
</g>
<g>
	<path d="M6.06,706.82c0-12.67,3.92-23.28,11.77-31.81s18.07-12.8,30.67-12.8c12.72,0,23.08,4.27,31.09,12.8
		c8,8.53,12.01,19.22,12.01,32.06c0,13.09-4.07,23.89-12.22,32.4c-8.14,8.51-18.5,12.77-31.06,12.77c-8.01,0-15.37-2.02-22.08-6.05
		c-6.72-4.04-11.76-9.66-15.13-16.88C7.75,722.1,6.06,714.6,6.06,706.82z M19.68,706.89c0,9.58,2.65,17.61,7.97,24.09
		c5.31,6.48,12.29,9.72,20.93,9.72c8.56,0,15.59-3.31,21.1-9.94c5.51-6.63,8.26-14.54,8.26-23.75c0-9.29-2.8-17.14-8.41-23.56
		c-5.61-6.42-12.65-9.63-21.13-9.63c-8.44,0-15.34,3.16-20.69,9.47C22.35,689.61,19.68,697.47,19.68,706.89z"/>
	<path d="M110.27,739.95v-65.44H99.81V663.6h64.14v26.29h-10.22v-15.37h-30.97v25.85h26.69v10.92h-26.69v28.67h10.58v10.92H99.81
		v-10.92H110.27z"/>
	<path d="M209.25,739.95v-65.44h-10.7V663.6h68.72v26.29h-10.22v-15.37h-35.31v25.97h30.73v10.92h-30.73v28.55h35.31v-15.87h10.22
		v26.79h-68.72v-10.92H209.25z"/>
	<path d="M325.77,751.81l2.44,1.13c6.46,2.8,11.43,4.2,14.92,4.2c1.11,0,2.56-0.19,4.34-0.56l-4.4,10.79
		c-1.19,0.21-2.28,0.31-3.27,0.31c-3.92,0-9.33-1.76-16.23-5.29c-5.94-3.02-10.62-4.53-14.03-4.53c-3.53,0-6.36,1.03-8.5,3.1
		l-3.51-5.33c2.34-2.68,5.39-4.43,9.15-5.27c-6.66-2.22-12.3-5.78-16.91-10.7c-4.62-4.91-7.84-10.2-9.66-15.87
		c-1.82-5.67-2.73-11.3-2.73-16.91c0-12.34,3.86-22.87,11.59-31.59s18.01-13.08,30.85-13.08c12.84,0,23.22,4.25,31.15,12.74
		c7.93,8.49,11.89,19.2,11.89,32.12c0,6.86-1.25,13.39-3.75,19.61s-6.78,11.79-12.84,16.72
		C340.21,748.33,333.38,751.14,325.77,751.81z M290.99,706.89c0,9.58,2.65,17.61,7.97,24.09c5.31,6.48,12.29,9.72,20.93,9.72
		c8.56,0,15.59-3.31,21.1-9.94c5.51-6.63,8.26-14.54,8.26-23.75c0-9.29-2.8-17.14-8.41-23.56c-5.61-6.42-12.65-9.63-21.13-9.63
		c-8.44,0-15.34,3.16-20.69,9.47C293.67,689.61,290.99,697.47,290.99,706.89z"/>
	<path d="M389.61,674.51v43.67c0,6.78,0.33,11.46,0.98,14.05c0.65,2.59,2.29,4.8,4.9,6.62s5.98,2.73,10.11,2.73
		c4.91,0,8.68-0.78,11.29-2.35s4.35-3.68,5.2-6.34c0.85-2.66,1.28-7.35,1.28-14.08v-44.29h-9.57V663.6h32.34v10.92H435.8v45.61
		c0,6.15-0.25,10.61-0.74,13.39c-0.5,2.78-1.83,5.69-4.01,8.72c-2.18,3.03-5.25,5.46-9.21,7.28c-3.96,1.82-8.78,2.73-14.45,2.73
		c-6.26,0-11.47-0.85-15.63-2.54c-4.16-1.69-7.29-3.96-9.39-6.81c-2.1-2.84-3.5-5.88-4.19-9.1c-0.69-3.22-1.04-8.22-1.04-15v-44.29
		H366.9V663.6h32.52v10.92H389.61z"/>
	<path d="M502.36,720.19h-29.79l-6.33,19.76h10.05v10.92h-32.58v-10.92h10.01l22.58-66.5h-9.99v-9.85h42.27v9.85h-10.34l23.14,66.5
		h9.25v10.92h-32.4v-10.92h10.28L502.36,720.19z M499.24,709.96l-11-36.51h-1.13l-11.46,36.51H499.24z"/>
	<path d="M542.09,739.95v-65.44h-10.7V663.6h33.83v10.92h-10.17v65.44h25.32v-29.68h11.65v40.59h-60.64v-10.92H542.09z"/>
	<path d="M629.6,706.82c0-12.67,3.92-23.28,11.77-31.81s18.07-12.8,30.67-12.8c12.72,0,23.08,4.27,31.09,12.8
		c8,8.53,12.01,19.22,12.01,32.06c0,13.09-4.07,23.89-12.22,32.4c-8.14,8.51-18.5,12.77-31.06,12.77c-8.01,0-15.37-2.02-22.08-6.05
		c-6.72-4.04-11.76-9.66-15.13-16.88C631.28,722.1,629.6,714.6,629.6,706.82z M643.21,706.89c0,9.58,2.65,17.61,7.97,24.09
		c5.31,6.48,12.29,9.72,20.93,9.72c8.56,0,15.59-3.31,21.1-9.94c5.51-6.63,8.26-14.54,8.26-23.75c0-9.29-2.8-17.14-8.41-23.56
		c-5.61-6.42-12.65-9.63-21.13-9.63c-8.44,0-15.34,3.16-20.69,9.47C645.89,689.61,643.21,697.47,643.21,706.89z"/>
	<path d="M734.05,739.95v-65.44h-11.35V663.6h33.59c7.01,0,12.58,0.58,16.7,1.73c4.12,1.15,7.53,3.58,10.23,7.28
		c2.69,3.7,4.04,8.31,4.04,13.83c0,11.54-5.68,18.8-17.04,21.77l14.61,31.75h10.11v10.92h-17.91l-18.83-40.78h-11.65v29.86h10.58
		v10.92h-34.42v-10.92H734.05z M746.53,699.17h9.75c4.72,0,8.19-0.32,10.43-0.97c2.24-0.65,4.07-1.97,5.5-3.95s2.14-4.65,2.14-8
		c0-2.84-0.72-5.25-2.17-7.21c-1.45-1.96-3.23-3.21-5.35-3.73c-2.12-0.52-5.36-0.78-9.72-0.78h-10.58V699.17z"/>
	<path d="M837.54,739.95v-65.44h-10.7V663.6h33.83v10.92H850.5v65.44h25.32v-29.68h11.65v40.59h-60.64v-10.92H837.54z"/>
	<path d="M902.58,739.95v-65.44h-10.7V663.6h68.72v26.29h-10.22v-15.37h-35.31v25.97h30.73v10.92h-30.73v28.55h35.31v-15.87h10.22
		v26.79h-68.72v-10.92H902.58z"/>
	<path d="M968.86,750.87v-31.68h10.34v7.72c4.95,9.5,11.43,14.24,19.44,14.24c4.08,0,7.53-1.32,10.34-3.95
		c2.81-2.64,4.22-6.09,4.22-10.35c0-4.14-1.15-7.12-3.45-8.94c-2.3-1.82-6.64-3.63-13.02-5.43c-7.41-2.09-12.9-4.07-16.47-5.93
		c-3.57-1.86-6.41-4.52-8.53-7.97c-2.12-3.45-3.18-7.54-3.18-12.26c0-7.32,2.31-13.17,6.92-17.54c4.62-4.37,10.41-6.56,17.39-6.56
		c6.62,0,12.76,2.26,18.43,6.78v-5.83h10.11v26.48h-10.11v-6.09c-4.24-6.73-10.09-10.1-17.54-10.1c-4.52,0-7.99,1.1-10.4,3.29
		c-2.42,2.2-3.63,4.82-3.63,7.87c0,2.34,0.61,4.4,1.84,6.18c1.23,1.78,2.79,3.08,4.7,3.92c1.9,0.84,5.65,2.01,11.24,3.51
		c7.29,2,12.58,3.87,15.87,5.61c3.29,1.74,6.12,4.63,8.5,8.69c2.38,4.06,3.57,8.72,3.57,13.99c0,7.45-2.49,13.6-7.46,18.45
		c-4.97,4.85-11.13,7.28-18.46,7.28c-7.53,0-14.31-2.86-20.33-8.59v7.21H968.86z"/>
	<path d="M1033.48,750.87v-31.68h10.34v7.72c4.95,9.5,11.43,14.24,19.44,14.24c4.08,0,7.53-1.32,10.34-3.95
		c2.81-2.64,4.22-6.09,4.22-10.35c0-4.14-1.15-7.12-3.45-8.94c-2.3-1.82-6.64-3.63-13.02-5.43c-7.41-2.09-12.9-4.07-16.47-5.93
		c-3.57-1.86-6.41-4.52-8.53-7.97c-2.12-3.45-3.18-7.54-3.18-12.26c0-7.32,2.31-13.17,6.92-17.54c4.62-4.37,10.41-6.56,17.39-6.56
		c6.62,0,12.76,2.26,18.43,6.78v-5.83h10.11v26.48h-10.11v-6.09c-4.24-6.73-10.09-10.1-17.54-10.1c-4.52,0-7.99,1.1-10.4,3.29
		c-2.42,2.2-3.63,4.82-3.63,7.87c0,2.34,0.61,4.4,1.84,6.18c1.23,1.78,2.79,3.08,4.7,3.92c1.9,0.84,5.65,2.01,11.24,3.51
		c7.29,2,12.58,3.87,15.87,5.61c3.29,1.74,6.12,4.63,8.5,8.69c2.38,4.06,3.57,8.72,3.57,13.99c0,7.45-2.49,13.6-7.46,18.45
		c-4.97,4.85-11.13,7.28-18.46,7.28c-7.53,0-14.31-2.86-20.33-8.59v7.21H1033.48z"/>
	<path d="M1107.91,739.95v-65.44h-10.7V663.6h68.72v26.29h-10.22v-15.37h-35.31v25.97h30.73v10.92h-30.73v28.55h35.31v-15.87h10.22
		v26.79h-68.72v-10.92H1107.91z"/>
	<path d="M1182.87,739.95v-65.44h-11.35V663.6h33.59c7.01,0,12.58,0.58,16.71,1.73c4.12,1.15,7.53,3.58,10.22,7.28
		c2.69,3.7,4.04,8.31,4.04,13.83c0,11.54-5.68,18.8-17.04,21.77l14.61,31.75h10.11v10.92h-17.91L1207,710.08h-11.65v29.86h10.58
		v10.92h-34.42v-10.92H1182.87z M1195.35,699.17h9.75c4.72,0,8.19-0.32,10.43-0.97s4.07-1.97,5.5-3.95s2.14-4.65,2.14-8
		c0-2.84-0.72-5.25-2.17-7.21c-1.45-1.96-3.23-3.21-5.35-3.73c-2.12-0.52-5.36-0.78-9.72-0.78h-10.58V699.17z"/>
	<path d="M1301.97,751.74l-27.78-77.23h-10.23V663.6h32.64v10.92h-9.55l21.06,58.6l20.5-58.6h-9.65V663.6h31.75v10.92h-10.04
		l-27.21,77.23H1301.97z"/>
	<path d="M1400.77,720.19h-29.79l-6.33,19.76h10.05v10.92h-32.58v-10.92h10.01l22.58-66.5h-9.99v-9.85h42.27v9.85h-10.34l23.14,66.5
		h9.25v10.92h-32.4v-10.92h10.28L1400.77,720.19z M1397.66,709.96l-11-36.51h-1.13l-11.46,36.51H1397.66z"/>
	<path d="M1440.51,739.95v-65.44h-10.7V663.6h33.83v10.92h-10.17v65.44h25.32v-29.68h11.65v40.59h-60.64v-10.92H1440.51z"/>
	<path d="M1515.83,674.51v43.67c0,6.78,0.33,11.46,0.98,14.05c0.65,2.59,2.29,4.8,4.9,6.62c2.62,1.82,5.98,2.73,10.11,2.73
		c4.91,0,8.68-0.78,11.29-2.35s4.35-3.68,5.2-6.34c0.85-2.66,1.28-7.35,1.28-14.08v-44.29h-9.57V663.6h32.34v10.92h-10.34v45.61
		c0,6.15-0.25,10.61-0.74,13.39c-0.5,2.78-1.83,5.69-4.01,8.72c-2.18,3.03-5.25,5.46-9.21,7.28c-3.96,1.82-8.78,2.73-14.45,2.73
		c-6.26,0-11.47-0.85-15.63-2.54c-4.16-1.69-7.29-3.96-9.39-6.81c-2.1-2.84-3.5-5.88-4.19-9.1s-1.04-8.22-1.04-15v-44.29h-10.22
		V663.6h32.52v10.92H1515.83z"/>
	<path d="M1587.94,739.95v-65.44h-10.7V663.6h68.72v26.29h-10.22v-15.37h-35.31v25.97h30.73v10.92h-30.73v28.55h35.31v-15.87h10.22
		v26.79h-68.72v-10.92H1587.94z"/>
</g>
<g>
</g>
<g>
</g>
<g>
</g>
<g>
</g>
<g>
</g>
<g>
</g>
<g>
</g>
<g>
</g>
<g>
</g>
<g>
</g>
<g>
</g>
<g>
</g>
<g>
</g>
<g>
</g>
<g>
</g>
</svg>
